<mxfile host="Electron" modified="2024-11-16T15:40:17.019Z" agent="Mozilla/5.0 (Windows NT 10.0; Win64; x64) AppleWebKit/537.36 (KHTML, like Gecko) draw.io/24.4.0 Chrome/120.0.6099.109 Electron/28.1.0 Safari/537.36" etag="bDI-0BilH4D7q5mzbR-4" version="24.4.0" type="device">
  <diagram name="Page-1" id="TnqWceA6ZZGtWKo2WriH">
    <mxGraphModel dx="1221" dy="823" grid="1" gridSize="10" guides="1" tooltips="1" connect="1" arrows="1" fold="1" page="1" pageScale="1" pageWidth="827" pageHeight="1169" math="0" shadow="0">
      <root>
        <mxCell id="0" />
        <mxCell id="1" parent="0" />
        <mxCell id="vyYkh9a_SI2N3CReZWnp-8" value="" style="rounded=0;whiteSpace=wrap;html=1;" vertex="1" parent="1">
          <mxGeometry x="455" y="240" width="250" height="210" as="geometry" />
        </mxCell>
        <mxCell id="vyYkh9a_SI2N3CReZWnp-7" value="" style="rounded=0;whiteSpace=wrap;html=1;" vertex="1" parent="1">
          <mxGeometry x="165" y="500" width="540" height="140" as="geometry" />
        </mxCell>
        <mxCell id="vyYkh9a_SI2N3CReZWnp-4" value="" style="rounded=0;whiteSpace=wrap;html=1;" vertex="1" parent="1">
          <mxGeometry x="165" y="240" width="250" height="210" as="geometry" />
        </mxCell>
        <mxCell id="vyYkh9a_SI2N3CReZWnp-11" style="edgeStyle=orthogonalEdgeStyle;rounded=0;orthogonalLoop=1;jettySize=auto;html=1;exitX=1;exitY=0.5;exitDx=0;exitDy=0;exitPerimeter=0;" edge="1" parent="1" source="vyYkh9a_SI2N3CReZWnp-1" target="vyYkh9a_SI2N3CReZWnp-10">
          <mxGeometry relative="1" as="geometry" />
        </mxCell>
        <mxCell id="vyYkh9a_SI2N3CReZWnp-12" style="edgeStyle=orthogonalEdgeStyle;rounded=0;orthogonalLoop=1;jettySize=auto;html=1;exitX=0.5;exitY=1;exitDx=0;exitDy=0;exitPerimeter=0;" edge="1" parent="1" source="vyYkh9a_SI2N3CReZWnp-1" target="vyYkh9a_SI2N3CReZWnp-3">
          <mxGeometry relative="1" as="geometry" />
        </mxCell>
        <mxCell id="vyYkh9a_SI2N3CReZWnp-1" value="" style="outlineConnect=0;dashed=0;verticalLabelPosition=bottom;verticalAlign=top;align=center;html=1;shape=mxgraph.aws3.android;fillColor=#8CC64F;gradientColor=none;" vertex="1" parent="1">
          <mxGeometry x="251.5" y="350" width="73.5" height="84" as="geometry" />
        </mxCell>
        <mxCell id="vyYkh9a_SI2N3CReZWnp-3" value="" style="image;html=1;image=img/lib/clip_art/general/Full_Folder_128x128.png" vertex="1" parent="1">
          <mxGeometry x="258.25" y="537.5" width="60" height="65" as="geometry" />
        </mxCell>
        <mxCell id="vyYkh9a_SI2N3CReZWnp-2" value="" style="image;sketch=0;aspect=fixed;html=1;points=[];align=center;fontSize=12;image=img/lib/mscae/Docker.svg;" vertex="1" parent="1">
          <mxGeometry x="125" y="210" width="85.37" height="70" as="geometry" />
        </mxCell>
        <mxCell id="vyYkh9a_SI2N3CReZWnp-5" value="" style="shape=image;verticalLabelPosition=bottom;labelBackgroundColor=default;verticalAlign=top;aspect=fixed;imageAspect=0;image=https://cdn4.iconfinder.com/data/icons/logos-and-brands/512/21_Angular_logo_logos-512.png;" vertex="1" parent="1">
          <mxGeometry x="254" y="250" width="70" height="70" as="geometry" />
        </mxCell>
        <mxCell id="vyYkh9a_SI2N3CReZWnp-6" style="edgeStyle=orthogonalEdgeStyle;rounded=0;orthogonalLoop=1;jettySize=auto;html=1;exitX=0.5;exitY=1;exitDx=0;exitDy=0;entryX=0.5;entryY=0;entryDx=0;entryDy=0;entryPerimeter=0;" edge="1" parent="1" source="vyYkh9a_SI2N3CReZWnp-5" target="vyYkh9a_SI2N3CReZWnp-1">
          <mxGeometry relative="1" as="geometry" />
        </mxCell>
        <mxCell id="vyYkh9a_SI2N3CReZWnp-9" value="" style="image;sketch=0;aspect=fixed;html=1;points=[];align=center;fontSize=12;image=img/lib/mscae/Docker.svg;" vertex="1" parent="1">
          <mxGeometry x="415" y="210" width="85.37" height="70" as="geometry" />
        </mxCell>
        <mxCell id="vyYkh9a_SI2N3CReZWnp-10" value="" style="dashed=0;outlineConnect=0;html=1;align=center;labelPosition=center;verticalLabelPosition=bottom;verticalAlign=top;shape=mxgraph.weblogos.mongodb" vertex="1" parent="1">
          <mxGeometry x="560" y="310" width="41.2" height="86.2" as="geometry" />
        </mxCell>
      </root>
    </mxGraphModel>
  </diagram>
</mxfile>
